<svg xmlns="http://www.w3.org/2000/svg" width="349.587" height="223.578" viewBox="0 0 349.587 223.578"><defs><style>.a{fill:#3f3f3f;}.b{fill:#f15a31;}</style></defs><g transform="translate(-845 -1068)"><path class="a" d="M41.2,526.829H383.241s-127.148-1.43-151.5-7.729h-31.9C199.8,519.1,185.549,525.846,41.2,526.829Z" transform="translate(805.941 764.749)"/><path class="a" d="M213.183,277.113s12.554-11.75,10.9-27.074c-2.234-20.6-28.95-41.37-48.7-44.766-5.54-.715-11.258-1.921-16.083-.491s-10.99,5.853-15.1,7.729c-2.413,1.117-4.914,1.921-13.85,2.725-5.182.491-11.482,3.038-13.984,5.138-3.172,2.636-7.908,8.622-8.31,10.812a20.653,20.653,0,0,1,4.6-10.856s-3.574,1.43-10.052-2.636c0,0,7.148,2.636,10.9.491,3.8-2.189,6.791-5.5,15.547-7.014,3.127-.536-3.574-2.9-10.722-3.887s-14.877-2.636-18.675-2.636-18.273-.715-22.651,9.427c0,0-.089-3.485,3.663-6.657,0,0-3.44,1.43-5.674.625,0,0,3.976-.223,6.21-2.189,2.189-1.921,4.512-3.753,5.54-3.753,0,0-2.413-3.619-3.887-6.031s-5.763-2.055-5.763-2.055,2.1-2.055,5.674.491c0,0-1.251-5.674,1.251-8.8,0,0-1.876,5.54.536,10.141s4.2,5.451,6.925,5.808c2.278.313,8.98-.983,14.028-.715a1.227,1.227,0,0,0,.849-2.01,32.929,32.929,0,0,1-3.976-7.416c-1.921-4.87-4.914-11.705-13.314-16.664,0,0,5.674,1.34,11.973,9.65a25.718,25.718,0,0,1,0-5.451c.313-3.172-1.653-6.657-.938-5.808.313.357,1.876,1.832,1.876,5.674,0,3.887,1.474,12.688,8.086,18,1.876,2.547,9.114,6.389,15.324,7.238s7.461,2.278,10.812,2.636a16.247,16.247,0,0,0,11.124-3.887,15.807,15.807,0,0,1,8.8-4.244s-5.987-1.921-9.025-5.451c-3.038-3.485-7.148-6.88-11.66-8.22s-15.413-2.9-21.311-1.072c0,0,1.7-2.055,8.712-2.055,0,0-2.323-5.093-7.461-6.3,0,0,3.038-.625,8.176,4.11a24.383,24.383,0,0,0,5.942,1.206,23.675,23.675,0,0,0,3.4.089c1.206-.134,1.742-1.3,1.162-2.547-1.474-3.217-3.083-8.354-11.973-11.08-11.035-3.4-17.424-1.34-22.472-5.182a28.106,28.106,0,0,0,10.812,1.206s-4.11-3.485-3.038-10.633c0,0-.223,7.729,5.227,10.276s9.248,1.43,11.348,2.77c0,0,1.876-7.372-4.6-11.973,0,0,7.148,2.278,7.148,12.554a18.228,18.228,0,0,1,9.561,8.22c3.44,6.3,8.131,9.025,12.733,13.358s14.654,7.818,23.768,8.846c13.984,1.608,30.2,6.121,44.542,18.228a83.9,83.9,0,0,1-12.643-24.84c-3.306-11.035-14.7-12.867-20.015-13.045-4.6-.134-16.083,6.746-32.167-3.529a32.081,32.081,0,0,0,18.273,1.564c4.914-1.072,8.265-2.323,13.224-2.636,7.55-.491,11.66,2.547,11.839,1.072.625-2.413-7.327-14.967-16.351-20.06s-12.822-3.663-17.29-2.815c-4.512.849-19.7,8-30.112-1.162-7.327-6.523-13.939-9.829-20.238-9.963,0,0,8.488-1.787,21.177,8.131,11.526,8.22,29.174-2.189,29.174-2.189s-11.348-1.564-16.351-7.014c-5.048-5.45-5.54-7.863-8.712-10.276-4.155-3.172-9.65-3.127-13-2.9a15.6,15.6,0,0,1,12.063.357s-2.189-8.578.849-12.822c0,0-2.189,9.337,2.636,15.324,4.825,6.031,9.873,9.829,15.86,11.616,2.725,1.206,14.162,1.028,22.249,6.612,8.086,5.54,1.474-18.719-1.385-21.623,0,0-5.138.894-9.248-.491-4.736-1.564-7.55-3.127-14.252-2.77,0,0,1.787-2.055,6.3-1.206,0,0-2.323-2.189-2.413-7.952,0,0,.4,5.674,5.227,7.863a13.875,13.875,0,0,0,12.375-.536s-3.127-11.437-11.437-17.96S149.3,96.8,149.3,96.8s2.636-2.278,8.622.223c0,0-1.162-5.674.849-8.22a8.858,8.858,0,0,0,2.01,8.8c3.8,3.887,7.193,4.825,12.018,12.063a25.992,25.992,0,0,0-1.519-15.681s5.763,4.334,4.2,20.149c0,0,7.193,11.75,9.516,20.506,1.162,4.334,1.832,12.956,5.182,18.987s11.348,14.475,16.486,24.17c3.4,6.344,6.567,15.1,8.444,16.8,1.966,1.742,3.172-4.021,3.887-7.148,1.519-6.433,5.763-15.592,8.22-19.792,3.306-5.719,7.684-11.795,7.55-21.891-.134-10.9-6.523-17.96-12.2-20.149a21.489,21.489,0,0,0-23.9,7.238,13.72,13.72,0,0,1,7.774-7.863s-6.076.849-9.65-1.921a15.685,15.685,0,0,0,7.952.357c3.261-.625,5.719-1.832,7.372-2.234a.614.614,0,0,0,.134-1.072,77.314,77.314,0,0,1-10.722-7.595c-4.423-3.619-8.488-9.561-11.035-14.252-2.5-4.691-4.825-10.365-9.337-11.973,0,0,3.8-.223,8.712,7.595,4.914,7.863,8.176,11.616,11.348,13.894,3.127,2.278.4-4.6,3.887-13.045,2.413-5.54,6.076-9.293,4.914-14.609-1.028-5.182-4.825-5.451-4.825-5.451s4.2-.625,5.451,4.244c0,0,.313-5.45,3.887-7.729,0,0-2.949,3.261-2.815,9.918a15.447,15.447,0,0,1-2.189,7.952c.313.357,4.11-.134,6.076-4.334,2.01-4.244,5.227-6.031,8.4-5.182,0,0-4.6,0-7.014,6.165s-7.327,6.031-8.488,6.523-4.2,11.214-2.1,16.173,7.193,7.595,10.544,8.935c5.763,2.278,12.465,5.316,15.994,9.65,0,0,.536-6.389,1.876-9.427,3.172-7.059,5.451-9.561,5.361-12.42.313.268,1.385,2.189-1.7,8.354,0,0,3.574-3.619,6.523-3.038,0,0-5.227,1.072-7.863,8.578-1.385,3.932-1.072,8.622,1.653,13.939a27.309,27.309,0,0,1,3.083,10.276c.179,1.876,2.144,2.725,3.4,1.474,2.815-2.725,5.987-6.567,9.159-14.207,5.54-13.4,2.1-25.868-1.7-35.16-2.591-6.389-8.488-15.1-11.124-17.736,0,0,9.025,5.54,16.173,24.527,0,0,.938,3.887,3.261.625,3.887-4.6,9.65-5.45,11.839-6.031,2.189-.625,6.3-2.636,7.774-5.674,0,0-.625,4.691-6.389,6.88s-10.588,4.334-13.626,10.141c.849,11.616.4,19.7-3.351,26.94,0,0,.089,1.206,2.189-.357a24.772,24.772,0,0,1,14.162-3.976c5.987.357,9.739-6.88,9.963-12.688s.4-18.5,12.152-25.957a25.376,25.376,0,0,0-8.8,13.894c-2.1,9.069-.625,11.839-1.876,17.736s-5.361,7.729-5.361,7.729,19.077,3.753,30.335-12.911c6.21-9.784,12.375-9.65,12.375-9.65s-5.048.849-11.035,11.124-14.7,14.877-23.812,15.681c-9.114.849-15.86-1.43-22.517,2.681a113.637,113.637,0,0,0-20.417,17.379c-3.261,3.887-11.75,17.647-15.949,32.837-4.2,15.235-1.385,26.716,6.165,37.349,0,0,.134-6.969,8.131-14.833,8.533-8.354,12.643-10.812,15.145-19.926,3.932-14.341,6.88-28.682,15.413-34.535,6.7-5.451,22.964-7.372,26.761-17.29a12.5,12.5,0,0,1-4.736,8.22s4.2-1.7,7.774.491a18.838,18.838,0,0,0-9.248,1.43c-4.11,1.921-6.523,3.4-10.5,5.451s-6.076,3.261-9.114,6.3-5.54,10.007-5.451,14.028c0,0,4.78-5.585,11.169-7.952,9.784-3.574,22.517-3.306,30.067-9.829s17.915-17.558,19.7-35.652c0,0,1.028,3.038,0,9.069,0,0,7.327-7.952,14.7-6.165a19.821,19.821,0,0,0-14.877,10.633c-5.048,9.784-8.8,17.29-14.252,22.7,0,0,12.911,2.77,23.1-3.887,7.774-5.048,13.09-9.293,20.194-8.176,0,0-6.791.268-13.984,6.3-7.148,5.942-10.9,7.416-13.984,8.042-7.372,1.564-14.386,1.34-17.424.625,0,0-7.908,7.148-21.891,8.578-10.276,1.072-18.585,8.667-21.981,15.949-1.117,2.413-2.144,8.086-.581,9.159s5.093-3.529,16.486-2.591c11.437.983,28.727,5.5,37.126,1.385s26-15.949,26.225-32.39a14.177,14.177,0,0,1,.536,6.657s3.976-7.372,10.9-6.657c0,0-7.327.357-11.437,11.705,0,0,2.5-2.144,9.516-.849,4.691,1.028,9.739,5,14.252,1.921,0,0-2.5,3.4-10.231,1.43-6.791-1.7-6.165-1.7-10.767-.491-3.8.983-7.595,5.674-10.231,9.159a48.607,48.607,0,0,1-16.486,13.269c-8.488,4.334-21.8,3.038-28.727,3.127-6.925.134-18.764-3.976-33.239,6.3S242.67,229,245.752,242.533c1.742,7.595,8.667,21.891,6.7,33.507Z" transform="translate(787.241 1012.544)"/><path class="a" d="M613.375,352.2a20.46,20.46,0,0,1,13.85,1.206c3.932,1.966,10.365,5.54,14.877,7.014s18.541,4.512,24.125,19.479c0,0-.268-6.165-3.887-9.427,0,0,5.5,3.708,10.41,2.9,0,0-7.908-2.412-13.671-7.148s-7.908-5.719-11.75-7.148a57.637,57.637,0,0,0,11.928-2.278c7.64-2.457,24.125.759,32.346,13.76,0,0-1.7-5.5-8.086-10.633a8.5,8.5,0,0,1,8.265-2.815s-2.725-2.77-10.141,1.162a39.642,39.642,0,0,0-15.145-4.87c-8.131-.625-16.575,3.8-23.5,2.368-6.657-1.385-10.141-7.193-16.932-8.176A130.013,130.013,0,0,0,613.375,352.2Z" transform="translate(489.402 859.629)"/><path class="a" d="M534.706,319.285c7.908.715,23.544-6.121,29.4-20.685,0,0-.715,5.763-6.165,12.2a8.244,8.244,0,0,0,8.578.938s-2.189,3.306-10.141,1.117a42.014,42.014,0,0,1-14.028,8.131C538.236,322.278,528.9,318.749,534.706,319.285Z" transform="translate(533.939 886.738)"/><path class="b" d="M743.594,443.814a8.536,8.536,0,0,0,.357,8.533c2.681,4.378,6.567,4.289,8.31,4.378a12.244,12.244,0,0,1-1.43-5.942C750.7,447.255,747.749,442.787,743.594,443.814Z" transform="translate(417.888 806.483)"/><path class="b" d="M738.6,418.316s2.949-3.887,7.372-1.787c4.289,2.055,5,6.7,5.451,8.757,0,0-1.921-1.072-5.361-.179C742.977,425.867,738.509,423.5,738.6,418.316Z" transform="translate(420.114 821.839)"/><path class="b" d="M785.646,403.435s5.54-1.519,8.086,3.529c2.681,5.361-1.34,11.616-3.529,12.241,0,0,.536-3.619-4.334-5.763C783.144,412.236,781.8,406.338,785.646,403.435Z" transform="translate(395.404 828.858)"/><path class="b" d="M723.5,426.07s3.887,4.021,1.921,8.891c-2.1,5.138-8.354,4.87-9.918,3.306,0,0,2.681-1.43,1.519-6.791C716.438,428.483,719.566,424.283,723.5,426.07Z" transform="translate(432.892 816.454)"/><path class="b" d="M750.7,397.589s2.1,4.914,7.1,4.2c4.87-.715,6.746-5.227,7.684-7.148,0,0-2.234.447-5.54-1.564C757,391.289,751.906,392.227,750.7,397.589Z" transform="translate(413.418 834.928)"/><path class="b" d="M783.481,344.531a5.77,5.77,0,0,0,7.014-2.144c2.9-3.887,1.787-8.22,1.385-10.186a8.271,8.271,0,0,1-4.557,2.815A7,7,0,0,0,783.481,344.531Z" transform="translate(395.648 868.149)"/><path class="b" d="M791.5,366.958s2.859-3.708,7.059-1.7c4.11,1.966,4.78,6.433,5.182,8.354a7.407,7.407,0,0,0-5.138-.179C795.7,374.2,791.455,371.962,791.5,366.958Z" transform="translate(390.846 850.19)"/><path class="b" d="M283.873,94.285a8.88,8.88,0,0,0,4.244-8.712c-.447-6.121-4.691-8.623-6.433-9.873,0,0,.357,2.815-1.7,6.88C278.2,86.154,278.869,92.543,283.873,94.285Z" transform="translate(674.333 1010.055)"/><path class="b" d="M346.641,90.26s-.581-6.835-6.791-8.488c-6.031-1.608-9.918,2.815-11.75,4.6,0,0,2.815.581,5.942,4.6C336.857,94.5,343.245,95.934,346.641,90.26Z" transform="translate(647.217 1006.887)"/><path class="b" d="M400.241,213.56s-.581-6.835-6.791-8.488c-6.031-1.608-9.918,2.815-11.75,4.6,0,0,2.815.581,5.942,4.6C390.412,217.8,396.8,219.234,400.241,213.56Z" transform="translate(617.563 938.673)"/><path class="b" d="M221.466,278.976s.894-6.791-4.691-10.186c-5.45-3.306-10.186-.134-12.375,1.028,0,0,2.591,1.385,4.736,6.165C211.057,280.227,216.909,283.488,221.466,278.976Z" transform="translate(715.652 904.039)"/><path class="b" d="M76.864,291.2s-1.3-6.7-7.595-7.506c-6.121-.8-9.561,4.155-11.169,6.165,0,0,2.859.179,6.344,3.753A7.549,7.549,0,0,0,76.864,291.2Z" transform="translate(796.591 895.034)"/><path class="b" d="M482.95,266.948A10.071,10.071,0,0,0,481.7,256.9c-3.663-4.6-8.4-3.619-10.5-3.4,0,0,1.787,2.01,2.323,6.746C474.015,264.4,477.991,269.092,482.95,266.948Z" transform="translate(568.048 911.823)"/><path class="b" d="M243.539,147.406s2.055-5.182-1.787-9.337c-3.708-4.021-8.086-2.725-10.052-2.368,0,0,1.787,1.742,2.591,6.121C234.961,145.753,239.027,149.818,243.539,147.406Z" transform="translate(700.549 977.128)"/><path class="b" d="M150.267,172.351s0-5.674-4.959-7.684c-4.825-1.921-8.354,1.34-10.007,2.591,0,0,2.278.76,4.557,4.378C141.867,174.853,147.005,176.685,150.267,172.351Z" transform="translate(753.881 961.163)"/><path class="b" d="M233.457,183.943a4.384,4.384,0,0,0-5.54-.447c-2.949,2.01-3.083,5.5-3.217,7.014a6.074,6.074,0,0,1,3.932-.759A4.88,4.88,0,0,0,233.457,183.943Z" transform="translate(704.421 950.866)"/><path class="b" d="M500.421,252.571a5.992,5.992,0,0,1-1.921-6.031,7.52,7.52,0,0,1,4.959-5.54,8.786,8.786,0,0,0,.491,4.557C504.71,248.059,503.727,252.08,500.421,252.571Z" transform="translate(553.034 918.605)"/><path class="b" d="M148.554,317.347s-.983-3.663-4.512-3.753c-3.44-.134-5.138,2.77-5.942,3.976a6.053,6.053,0,0,1,3.663,1.742A4.217,4.217,0,0,0,148.554,317.347Z" transform="translate(752.332 878.445)"/><path class="b" d="M151.416,294.836s.491-3.753-2.636-5.629c-3.038-1.832-5.674-.045-6.88.625a7.234,7.234,0,0,1,2.636,3.4C145.653,295.6,148.914,297.383,151.416,294.836Z" transform="translate(750.23 892.378)"/><path class="b" d="M343.816,213.538a4.627,4.627,0,0,0-4.959,2.9c-1.653,3.44-.179,6.523.357,7.908a7.076,7.076,0,0,1,3.038-2.949A5.636,5.636,0,0,0,343.816,213.538Z" transform="translate(641.687 933.825)"/><path class="b" d="M430.9,70.7s-1.251-5.5,3.127-8.891c4.244-3.261,8.4-1.162,10.276-.4,0,0-2.01,1.385-3.44,5.54C439.607,70.7,435.005,73.96,430.9,70.7Z" transform="translate(590.438 1018.719)"/><path class="b" d="M306.09,75.358a8.806,8.806,0,0,1-3.44-8.712c.893-5.808,5.093-7.774,6.88-8.846a12.7,12.7,0,0,0,1.117,6.7C312.076,68.12,310.959,74.2,306.09,75.358Z" transform="translate(661.364 1019.958)"/><path class="b" d="M259.966,85.566a8.831,8.831,0,0,1-2.859-8.891c1.206-5.674,5.451-7.282,7.282-8.176a12.79,12.79,0,0,0,.715,6.7C266.31,78.865,264.836,84.762,259.966,85.566Z" transform="translate(686.624 1014.038)"/><path class="b" d="M490.087,105.387s-.447-5.9,4.557-8.444c4.87-2.457,8.8.581,10.588,1.742,0,0-2.279,1.028-4.378,5C498.978,107.219,493.8,109.587,490.087,105.387Z" transform="translate(557.605 998.819)"/><path class="b" d="M168.873,191.644a5.974,5.974,0,0,0-7.55.581c-3.663,3.306-3.217,8.042-3.172,10.141a8.407,8.407,0,0,1,5.138-1.876C166.416,200.311,170.169,196.648,168.873,191.644Z" transform="translate(741.261 946.516)"/><path class="b" d="M348.7,60.5s1.117-5.808-3.574-9.069c-4.557-3.172-8.8-.759-10.722.134,0,0,2.144,1.34,3.8,5.585C339.627,60.951,344.542,64.078,348.7,60.5Z" transform="translate(643.731 1024.358)"/><path class="b" d="M478.687,112.759s-1.072-16.351,5.942-24.259c0,0-6.791,3.708-7.729,16.888Z" transform="translate(564.895 1002.973)"/><path class="b" d="M53.962,332.18s-1.385-7.863-7.506-8.533c-6.523-.715-10.5,7.64-10.007,10.767,0,0,3.217-2.547,7.774,2.591C46.77,339.864,53.114,338.568,53.962,332.18Z" transform="translate(808.591 872.905)"/><path class="b" d="M202.479,207.141s-2.993-4.021-7.506-1.966c-4.423,2.01-5.182,6.746-5.674,8.8,0,0,2.01-1.028,5.5-.089C197.878,214.736,202.479,212.458,202.479,207.141Z" transform="translate(724.006 938.748)"/><path class="b" d="M407.307,65.283a9.782,9.782,0,0,1-.894-9.918c2.5-5.406,7.238-5.808,9.293-6.165,0,0-1.251,2.413-.8,7.059C415.259,60.414,412.445,65.954,407.307,65.283Z" transform="translate(604.421 1024.716)"/><path class="b" d="M481.182,65.557a9.733,9.733,0,0,0-1.3-9.695c-3.574-4.423-8.176-3.4-10.186-3.127,0,0,1.742,1.921,2.323,6.478C472.47,63.278,476.4,67.746,481.182,65.557Z" transform="translate(568.878 1022.924)"/><path class="b" d="M443.931,125.977a8.258,8.258,0,0,1-1.787-8.354c1.608-4.959,5.629-5.942,7.327-6.523a11.544,11.544,0,0,0,.045,6.165C450.275,120.705,448.4,125.888,443.931,125.977Z" transform="translate(584.372 990.47)"/><path class="b" d="M96.594,318.153s-.268-3.931,3.083-5.629c3.261-1.653,5.9.4,7.1,1.162,0,0-1.519.67-2.949,3.351C102.536,319.36,99.051,320.923,96.594,318.153Z" transform="translate(775.298 879.381)"/><path class="b" d="M51.488,375.608s-3.351,4.512-8.444,2.144c-4.959-2.278-5.808-7.64-6.344-9.918,0,0,2.234,1.162,6.165.134C46.35,367.03,51.488,369.621,51.488,375.608Z" transform="translate(808.43 848.465)"/><path class="b" d="M49.139,402.89a7.014,7.014,0,0,0-8.086,3.529c-3.083,5-1.251,10.052-.581,12.331a10.26,10.26,0,0,1,5.093-3.976A8.594,8.594,0,0,0,49.139,402.89Z" transform="translate(806.981 829.18)"/><path class="b" d="M72.677,396.4a9.489,9.489,0,0,0-2.01,9.561c1.876,5.674,6.433,6.7,8.4,7.372,0,0-.983-2.547,0-7.014C79.959,402.342,77.814,396.489,72.677,396.4Z" transform="translate(789.922 832.631)"/><path class="b" d="M324.979,172.057s.715-6.031-4.334-8.935c-4.914-2.815-9.069.089-10.946,1.162,0,0,2.323,1.162,4.289,5.361C315.776,173.4,321,176.167,324.979,172.057Z" transform="translate(657.396 962.35)"/><path class="b" d="M388.6,49.067a9.363,9.363,0,0,1,.893-9.427c3.306-4.423,7.729-3.708,9.695-3.529,0,0-1.608,1.966-1.966,6.344C396.91,46.387,393.291,50.9,388.6,49.067Z" transform="translate(614.237 1032.041)"/><path class="b" d="M444.36,192.364a9.478,9.478,0,0,1-.179-9.561c2.815-4.959,7.327-4.87,9.337-5,0,0-1.385,2.189-1.251,6.657C452.4,188.433,449.275,193.526,444.36,192.364Z" transform="translate(583.674 953.569)"/><path class="b" d="M283.317,206.587s-1.028-5.808-6.478-6.612c-5.272-.8-8.31,3.4-9.739,5.138,0,0,2.457.223,5.451,3.351C275.231,211.233,280.816,211.814,283.317,206.587Z" transform="translate(680.964 941.357)"/><path class="b" d="M134.93,431.814s-5-1.34-7.952,3.976c-2.859,5.182-.8,10.1-.045,12.331a10.872,10.872,0,0,1,4.914-4.289A8.574,8.574,0,0,0,134.93,431.814Z" transform="translate(759.299 813.123)"/><path class="b" d="M353.707,260.983a9.782,9.782,0,0,1-.894-9.918c2.5-5.406,7.238-5.808,9.293-6.165,0,0-1.251,2.413-.8,7.059C361.7,256.114,358.889,261.7,353.707,260.983Z" transform="translate(634.074 916.447)"/><path class="b" d="M176.207,343.783a9.782,9.782,0,0,1-.894-9.918c2.5-5.406,7.238-5.808,9.293-6.165,0,0-1.251,2.413-.8,7.059C184.2,338.869,181.345,344.454,176.207,343.783Z" transform="translate(732.274 870.639)"/><path class="b" d="M249.6,277.267a9.363,9.363,0,0,1,.894-9.427c3.306-4.423,7.729-3.708,9.695-3.529,0,0-1.608,1.966-1.966,6.344C257.866,274.587,254.291,279.1,249.6,277.267Z" transform="translate(691.137 905.792)"/><path class="b" d="M179.7,160.081s-4.914-.76-5.942-6.7c-1.028-5.763,2.278-9.382,3.619-11.08a11.858,11.858,0,0,0,3.172,5.763C183.007,150.833,183.855,156.954,179.7,160.081Z" transform="translate(732.712 973.209)"/><path class="b" d="M113.286,278.288a6.767,6.767,0,0,1-7.908-2.993c-3.127-4.691-1.519-9.605-.983-11.794a10.08,10.08,0,0,0,5.048,3.619C112.75,268.28,115.833,273.329,113.286,278.288Z" transform="translate(771.472 906.157)"/><path class="b" d="M210.429,140.354a8.935,8.935,0,0,1-2.457-9.025c1.474-5.585,5.808-6.969,7.64-7.729a12.662,12.662,0,0,0,.4,6.746C217.086,134.1,215.343,139.907,210.429,140.354Z" transform="translate(713.868 983.555)"/><path class="b" d="M113.713,387.116s-1.608-5.316-6.791-5.316c-5.048,0-7.461,4.378-8.623,6.21,0,0,2.323-.134,5.5,2.368C106.61,392.656,111.926,392.388,113.713,387.116Z" transform="translate(774.351 840.709)"/><path class="b" d="M413.063,91.337a6.939,6.939,0,0,1,8.31,2.725c3.4,4.736,1.966,9.873,1.474,12.2a10.03,10.03,0,0,0-5.361-3.485C414,101.7,410.606,96.609,413.063,91.337Z" transform="translate(600.675 1001.656)"/><path class="b" d="M380.907,138.783a9.782,9.782,0,0,1-.893-9.918c2.5-5.406,7.238-5.808,9.293-6.165,0,0-1.251,2.413-.8,7.059C388.9,133.914,386.089,139.5,380.907,138.783Z" transform="translate(619.026 984.053)"/><path class="b" d="M396.1,158.151s1.385-5.719,6.88-6.076c5.316-.357,8.086,4.11,9.382,5.9,0,0-2.457,0-5.629,2.9A6.52,6.52,0,0,1,396.1,158.151Z" transform="translate(609.596 967.813)"/><path class="b" d="M646.6,220.06s.581-6.835,6.791-8.488c6.031-1.608,9.918,2.815,11.75,4.6,0,0-2.815.581-5.942,4.6C656.384,224.3,650.04,225.734,646.6,220.06Z" transform="translate(471.01 935.077)"/><path class="b" d="M586.5,215.66s.581-6.835,6.791-8.488c6.031-1.608,9.918,2.815,11.75,4.6,0,0-2.815.581-5.942,4.6C596.284,219.949,589.94,221.379,586.5,215.66Z" transform="translate(504.26 937.511)"/><path class="b" d="M739.836,309.095a7.056,7.056,0,0,1,8.22,3.172c3.217,4.914,1.564,10.007.983,12.286a10.584,10.584,0,0,0-5.227-3.8A8.381,8.381,0,0,1,739.836,309.095Z" transform="translate(419.993 881.113)"/><path class="b" d="M517.579,159.057s.715-6.031-4.334-8.935c-4.914-2.815-9.069.089-10.946,1.162,0,0,2.323,1.162,4.289,5.361C508.331,160.442,513.6,163.167,517.579,159.057Z" transform="translate(550.843 969.542)"/><path class="b" d="M745.888,286.4s-.983-5.54,3.529-8.578c4.378-2.949,8.354-.581,10.186.268,0,0-2.055,1.251-3.663,5.272C754.466,286.98,749.775,289.884,745.888,286.4Z" transform="translate(416.13 899.028)"/><path class="b" d="M552.1,167.671s-.268-5.942,4.825-8.265c4.959-2.279,8.757.894,10.544,2.1,0,0-2.323.938-4.512,4.825C560.943,169.815,555.671,172,552.1,167.671Z" transform="translate(523.294 964.19)"/><path class="b" d="M715.5,261.251s1.385-5.719,6.88-6.076c5.317-.357,8.086,4.11,9.382,5.9,0,0-2.457,0-5.629,2.9A6.536,6.536,0,0,1,715.5,261.251Z" transform="translate(432.892 910.774)"/><path class="b" d="M701.191,340.8s-2.01-5.451,2.1-9.65c3.976-4.11,8.533-2.591,10.544-2.1,0,0-1.921,1.787-2.859,6.3C710.171,339.375,705.838,343.485,701.191,340.8Z" transform="translate(441.08 870.267)"/><path class="b" d="M713.454,214.441a6.894,6.894,0,0,0,8.444-2.189c3.663-4.512,2.413-9.784,2.055-12.152a10.064,10.064,0,0,1-5.54,3.172A8.287,8.287,0,0,0,713.454,214.441Z" transform="translate(434.402 941.232)"/><path class="b" d="M677.387,155.668s5.763-1.653,6.3-8.935c.536-7.1-3.842-10.856-5.629-12.733,0,0-.089,3.261-3.083,7.416C672.294,145.124,671.981,152.585,677.387,155.668Z" transform="translate(456.352 977.801)"/><path class="b" d="M537.968,87.987s5.808,1.519,9.159-4.691c3.261-6.031.849-11.705-.045-14.3,0,0-1.385,2.859-5.674,5A10.033,10.033,0,0,0,537.968,87.987Z" transform="translate(531.973 1013.762)"/><path class="b" d="M690.3,185.485s1.787-5.316,7.059-5.093c5.138.223,7.416,4.736,8.533,6.612,0,0-2.368-.223-5.629,2.189C697.314,191.382,691.953,190.89,690.3,185.485Z" transform="translate(446.834 952.139)"/><path class="b" d="M608.754,295.041a6.894,6.894,0,0,0,8.444-2.189c3.663-4.512,2.412-9.784,2.055-12.152a10.064,10.064,0,0,1-5.54,3.172C610.184,284.721,606.52,289.635,608.754,295.041Z" transform="translate(492.326 896.641)"/><path class="b" d="M566.2,306.269s1.117-6.076-3.842-9.471c-4.825-3.306-9.248-.67-11.258.268,0,0,2.279,1.385,4.021,5.853C556.729,306.85,561.912,310.111,566.2,306.269Z" transform="translate(523.844 888.63)"/><path class="b" d="M613.2,321.185s1.787-5.316,7.059-5.093c5.138.223,7.416,4.736,8.533,6.612,0,0-2.368-.223-5.629,2.189C620.259,327.082,614.9,326.59,613.2,321.185Z" transform="translate(489.488 877.065)"/><path class="b" d="M570.665,96.453s-1.7-5.361,2.368-9.159c3.976-3.708,8.265-2.055,10.231-1.474,0,0-1.921,1.608-2.993,5.9C579.332,95.515,575,99.268,570.665,96.453Z" transform="translate(513.215 1004.938)"/><path class="b" d="M505.059,69.967s-.67-5.629,4.021-8.4c4.557-2.681,8.488,0,10.276,1.028,0,0-2.144,1.117-3.976,5.048C513.682,71.173,508.812,73.764,505.059,69.967Z" transform="translate(549.334 1018.513)"/><path class="b" d="M574.482,122.948a6.432,6.432,0,0,1,8.131,1.251c3.8,3.887,3.038,8.98,2.859,11.258a9.219,9.219,0,0,0-5.5-2.413C576.582,132.554,572.784,128.265,574.482,122.948Z" transform="translate(511.14 984.43)"/><path class="b" d="M635.032,128.291a9.862,9.862,0,0,1,.715-9.918c3.351-4.78,8.042-4.155,10.1-4.066,0,0-1.653,2.1-1.921,6.746C643.654,125.208,639.991,130.078,635.032,128.291Z" transform="translate(477.977 988.737)"/><path class="b" d="M760.8,303.412s1.43-5.719,6.88-6.031c5.316-.313,8.042,4.155,9.382,5.987,0,0-2.457,0-5.674,2.859A6.516,6.516,0,0,1,760.8,303.412Z" transform="translate(407.83 887.421)"/><path class="b" d="M594.8,106.285s.893-5.54,6.031-6.433c5-.849,7.952,3.038,9.337,4.646,0,0-2.323.268-5.138,3.306C602.529,110.529,597.257,111.2,594.8,106.285Z" transform="translate(499.668 996.759)"/><path class="b" d="M658.069,289.085s-.894-5.54-6.031-6.433c-5-.849-7.952,3.038-9.337,4.646,0,0,2.323.268,5.138,3.306A6.119,6.119,0,0,0,658.069,289.085Z" transform="translate(473.168 895.628)"/><path class="b" d="M640.121,151.906s5.048-1.028,7.729,4.468c2.591,5.361.313,10.141-.536,12.331a10.914,10.914,0,0,0-4.736-4.6A8.763,8.763,0,0,1,640.121,151.906Z" transform="translate(475.434 967.937)"/><path class="b" d="M150.212,239.877s-.849-5.093,3.306-7.863c4.066-2.681,7.729-.447,9.382.357,0,0-1.921,1.117-3.44,4.825C158.119,240.5,153.786,243.139,150.212,239.877Z" transform="translate(745.671 924.284)"/><path class="b" d="M136.641,212.1a9.935,9.935,0,0,0-.223-9.963c-3.127-4.959-7.863-4.646-9.918-4.646,0,0,1.519,2.189,1.608,6.88C128.153,208.485,131.593,213.579,136.641,212.1Z" transform="translate(758.749 942.675)"/><path class="b" d="M125.7,240.879s-.134-5.853-5.272-7.729c-5-1.832-8.578,1.608-10.231,2.993,0,0,2.323.715,4.78,4.334C117.169,243.783,122.486,245.436,125.7,240.879Z" transform="translate(767.767 923.238)"/></g></svg>