<svg xmlns="http://www.w3.org/2000/svg" width="432" height="173.76" viewBox="0 0 432 173.76"><defs><style>.a{fill:#00915a;}</style></defs><g transform="translate(-801.333 -1291.757)"><path class="a" d="M229.179,551.1c-4.8,5.358-12.978,11.252-27.536,14.065s-46.89,1.272-51.687-1.875-20.144-11.921-36.282-5.693c0,0,13.26-2.21,31.26,7.836a68.024,68.024,0,0,0-24.094,4.42c-11.906,4.688-33.122,10.046-42.94,1.272,0,0,4.8,7.568,16.984,8.841,0,0-10.89,6.63-13.26,15.069,0,0,8.464-11.921,27.536-16.074s22.8-6.3,31.542-6.9,37.636,4.688,46.382,3.148c0,0-32.05,6.3-43.448,12.591S128.289,601,120.84,602.6c-7.448,1.54-24.376-2.813-28.89-6.3,0,0,2.144,4.688,6.094,5.693,0,0-6.094,4.086-7.448,10.984,0,0,4.232-8.506,10.89-8.841,0,0,12.7,3.148,18.564,2.545a49.68,49.68,0,0,0-12.188,20.159s9.818-15.069,20.652-22.3c10.89-7.233,13.768-10.984,19.354-12.926,5.586-1.875,39.216-10.381,52.194-10.984s19.354,4.085,30.752-.938c0,0-14.05,17.011-28.608,23.307s-17.21.335-23.868,0c-6.6-.335-15.348-.6-22.8,2.545s-18,15.739-18,15.739,9.818-9.778,20.934-11.921c11.116-2.21,21.442,1.54,27.31,2.21,5.812.6,12.47,1.54,17.492-1.272,0,0,.282,10.381-4.232,15.4,0,0,8.238-4.688,11.906-20.159,0,0,21.216-6.9,31.542-19.49s16.42-13.529,18.564-11.319-.282,21.1-8.746,32.683c-8.464,11.654-14.332,16.074-22.006,18.552-7.674,2.545-12.978.938-19.636,3.483-6.6,2.545-18.79,4.688-24.376,2.21-5.586-2.545-9.536-8.506-13.542-7.233-3.95,1.273-5.022,3.751-11.4,0s-10.608-5.023-13.768-3.75c0,0,8.746,1.875,12.7,7.568,0,0,.79,5.961-11.116,3.483s-18-5.693-24.884-5.023a14.309,14.309,0,0,0-10.326,6.3s5.812-5.961,14.05-3.148,11.68,6.3,15.122,6.63a16.7,16.7,0,0,0-5.586,8.841c-1.58,5.961-9.818,7.568-9.818,7.568s7.674.938,11.906-4.085,2.934-9.443,9.818-10.984,13.26-1.54,15.63-4.42c2.37-2.813,5.022-5.693,9.818-2.545s6.6,6.3,9.536,6.63c0,0-10.608,11.654-19.072,10.716,0,0,10.326,3.483,22.8-9.778,0,0,5.812,2.21,14.332-.6,8.464-2.813,23.586-6.3,23.3-3.148s-3.724,12.591-15.122,15.4-15.348,0-19.862,1.272-15.348-.6-22.514,8.841-19.072,6.63-19.072,6.63,10.608,6.63,21.216-4.42a32.729,32.729,0,0,1-1.072,12.256s5.022-6.63,4.514-15.069c0,0,5.586-4.688,17.21-3.75,11.68.938,13.26.335,13.26.335s-6.376,7.836-7.674,15.4-8.746,12.256-13.26,13.529c0,0,8.746,1.54,13.768-5.961,0,0,3.95,1.273,5.3,10.381a20.127,20.127,0,0,0-2.934-14.131s2.934-14.466,11.906-18.887c9.028-4.42,12.978-6.63,18-13.529s9.028-13.194,8.746-7.836.79,13.864-8.238,22.637c-7.392,7.233-14.84,14.132-12.978,39.314,0,0,2.934-18.552,5.3-22.034,0,0,2.934.938,4.8,7.568,0,0,1.3-5.023-2.934-10.984,0,0,2.144-4.42,5.586-6.63s5.3-3.483,6.884-6.63c0,0-2.652,9.443.508,16.677s5.3,15.4-1.3,30.205c0,0,10.608-15.739,7.166-26.12,0,0,6.884-4.085,13.26,7.233,0,0-1.3-10.716-15.122-12.256,0,0-3.724-6.3-.282-17.279s2.144-18.887,4.232-23.91c2.144-5.023,19.354-27.057,22.288-21.7s.282,15.4-3.95,23.91-15.122,17.614-15.348,26.455c0,0,5.586-9.443,10.044-10.716,0,0-3.442,8.171-.508,16.342s5.586,10.716,5.022,21.1c0,0,2.652-7.568.508-15.069-2.144-7.568-5.3-8.506-2.934-17.011s11.68-14.466,12.188-20.762,5.022,6.9,3.16,17.614,2.652,12.591.508,20.762-1.862,18.217-6.6,22.637c-4.8,4.42-7.956,10.046-15.63,10.716,0,0,11.4,1.54,16.984-8.171,0,0,3.442,11.654,10.044,16.074,0,0-8.746-14.132-6.884-18.887,1.862-4.688,4.514-7.836,4.8-13.194s2.652-12.256,3.724-10.381,1.862,11.921,5.586,20.159c3.724,8.171,4.345,16.744,3.16,22.3-.282,1.273,4.8-5.023,2.37-13.529,0,0,10.608,3.483,13.768,10.984a10.117,10.117,0,0,0-6.376-10.046c-7.166-3.148-11.4-11.921-12.978-19.489s-1.862-25.182-.282-27.392,12.7,4.085,15.912,9.443,11.68,4.688,13.768,15.739,3.95,16.342-.508,23.91a19.775,19.775,0,0,0,5.022-18.887s8.746.938,14.84,16.677c0,0,.79-10.381-11.116-20.427-6.376-4.42-4.8-12.926-11.116-14.8-6.376-1.875-7.166-6.63-7.166-6.63s11.4,3.148,17.492,1.273,12.47-1.875,15.912,4.42,5.022,11.921,3.724,18.552-1.072,11.319.282,14.8c0,0,.282-10.984,2.934-14.8a15.137,15.137,0,0,1,9.536,6.9s0-6.9-9.536-10.984c0,0,.79-11.921-5.3-19.489a13.789,13.789,0,0,1,13.768,5.961c5.586,7.836,9.254,11.319,13.542,11.921,4.232.6,7.674,5.693,8.746,9.108,0,0,1.58-5.961-8.746-11.654s-11.68-13.194-11.68-13.194c-.79,0,9.818-5.358,15.912-1.875s10.89,8.506,16.42,6.9a27.1,27.1,0,0,1-9.536-5.023c-4.514-3.75-5.022-5.961-9.254-5.961,0,0,5.3-11.921,14.05-7.836,0,0-3.442-5.693-10.044-.938-6.6,4.688-5.022,6.63-9.818,8.506a24.82,24.82,0,0,1-13.542,1.875c-5.022-.6-9.536-4.688-15.63-4.085s-17.21,3.148-25.73,0c-8.464-3.148-15.348-6.9-20.426-21.365s-1.862-29.268-.282-24.847,7.166,11.654,15.912,14.8,28.608-1.875,33.4,22.3c0,0,.79-7.836-2.652-12.926,0,0,16.42.938,24.658,15.739,0,0-.508-8.841-10.608-14.132-10.044-5.358-13.542-4.085-17.21-8.841,0,0,10.608,4.085,16.194,2.21s18-6.3,26.52-1.273c8.464,5.023,15.63,16.074,16.194,21.1.508,5.023,1.3,12.926,8.238,18.552a24.708,24.708,0,0,1-5.022-18.552s9.254,3.483,12.7,2.21,6.6,0,9.536,3.75c0,0-2.934-6.63-10.044-6.9-7.166-.335-10.044.335-15.122-7.233-5.022-7.568-11.116-18.887-26.238-19.489,0,0,13.26-14.8,22.8-12.926s14.558,15.4,22.8,15.069a28.738,28.738,0,0,1-9.536-9.443c-4.232-6.63-9.028-7.568-9.028-7.568s11.4-4.688,12.978-12.591c0,0-6.094,9.108-16.42,10.716-10.326,1.54-12.7,3.148-16.984,6.631-4.232,3.483-9.028,8.841-19.636,10.984-10.608,2.21-28.382-1.54-36.282-5.023-7.956-3.483-28.89-14.466-25.73-46.882,0,0,1.3-1.875,3.724,3.751,2.37,5.693,15.912,15.739,26.52,15.739s15.348-1.272,22.514,4.42,18,12.591,22.288,10.381a11.1,11.1,0,0,1,10.89,0s-1.58-5.023-8.464-4.42c0,0,9.536-13.529,23.868-10.381,0,0-5.3-4.42-15.348,0-6.6,2.545-10.326,8.841-12.47,10.716a9.527,9.527,0,0,1-8.746-2.813,59.47,59.47,0,0,0-9.536-7.233s10.326.335,18-4.42c7.674-4.688,13.26-8.171,20.652-7.836,7.448.335,24.094,4.42,30.752,11.319,6.6,6.9,7.956,22.3,7.674,27.392-.282,5.023-3.442,21.7,1.58,28.933,0,0-2.934-14.8.508-25.45,0,0,8.238,3.148,10.044,9.108,0,0,1.072-5.961-8.464-12.591,0,0,1.072-9.443-1.072-14.8,0,0,4.232-1.875,9.254,3.751,2.821,2.746,2.934,8.506,7.956,11.319,0,0-3.1-3.483-3.893-6.63s-2.031-4.621-4.4-7.367-7.843-4.688-9.875-4.487c0,0-1.862-7.1-3.555-9.309s8.238-2.947,12.527-.737c4.345,2.21,9.818,6.363,13.712,18.753,0,0-1.072-8.707-4.683-13.864,0,0,7.843,1.273,11.68-1.875a16.325,16.325,0,0,1-8.859.134c-4.458-1.339-7.5-3.951-7.223-5.693.282-1.674,5.361-4.085,8.915-5.023a21.792,21.792,0,0,1,14.5.938s-2.031-2.411-8.125-3.349S443.543,579.162,441,579.9s-3.95,3.148-8.238,2.545c-4.232-.6-10.947-1.273-12.978-.6-2.031.6-15.179-8.707-19.411-9.443s14.84-9.979,30.583-9.51c6.884-.134,14.107,1.54,18.734,4.286,4.571,2.746,10.326,8.1,20.031,9.778,0,0-12.019-5.157-17.379-10.18,0,0,8.408-3.014,16.533,1.138,0,0-5.022-6.5-18.79-3.55a52.209,52.209,0,0,0-19.241-4.085c-10.947-.2-22.8,2.277-27.818,4.286s-10.947,4.956-15.743,5.693-9.818-.2-19.636,4.219-15.179,7.367-26.577,6.5-33.4-17.413-37.185-29.134Z" transform="translate(742.562 750.234)"/><path class="a" d="M44,536.8H476s-156.357,2.586-187.11,13.856H214.633C214.633,550.748,226.314,538.555,44,536.8Z" transform="translate(757.333 754.957)"/></g></svg>